<?xml version="1.0" encoding="UTF-8"?>
<svg width="494px" height="128px" viewBox="0 0 494 128" version="1.1" xmlns="http://www.w3.org/2000/svg" xmlns:xlink="http://www.w3.org/1999/xlink">
    <!-- Generator: Sketch 46.2 (44496) - http://www.bohemiancoding.com/sketch -->
    <title>Sourcetree-white</title>
    <desc>Created with Sketch.</desc>
    <defs>
        <linearGradient x1="49.9279136%" y1="90.7207251%" x2="49.9279136%" y2="36.2883187%" id="linearGradient-1">
            <stop stop-color="#FFFFFF" stop-opacity="0.4" offset="0%"></stop>
            <stop stop-color="#FFFFFF" offset="100%"></stop>
        </linearGradient>
    </defs>
    <g id="Page-1" stroke="none" stroke-width="1" fill="none" fill-rule="evenodd">
        <g id="Sourcetree-white" fill-rule="nonzero">
            <g transform="translate(0.000000, 25.240000)" id="Shape">
                <path d="M38.22,46.84 C38.22,41.985417 34.284583,38.05 29.43,38.05 L29.43,38.05 C25.9948913,38.0500001 22.82072,36.2173914 21.1031656,33.2425 C19.3856113,30.2676087 19.3856113,26.6023913 21.1031656,23.6275 C22.82072,20.6526086 25.9948913,18.8199999 29.43,18.82 L29.43,18.82 C30.0680573,18.8203636 30.7045055,18.8840085 31.33,19.01 L31.33,0.07 C30.71,-1.88229694e-15 30.08,-1.88229694e-15 29.44,-1.88229694e-15 L29.44,-1.88229694e-15 C15.4408571,-0.0197421648 3.51078774,10.1544471 1.32014881,23.981142 C-0.87049013,37.8078369 7.3303522,51.1714767 20.65,55.48 L20.65,69.76 C20.65,70.8645695 21.5454305,71.76 22.65,71.76 L36.22,71.76 C37.3245695,71.76 38.22,70.8645695 38.22,69.76 L38.22,46.84 Z" fill="#FFFFFF"></path>
                <path d="M29.44,1.01643954e-20 L29.44,18.83 L29.44,18.83 C34.7502179,18.83 39.055,23.1347821 39.055,28.445 C39.055,33.7552179 34.7502179,38.06 29.44,38.06 L29.44,38.06 C31.7712529,38.06 34.0070238,38.9860866 35.6554686,40.6345314 C37.3039134,42.2829762 38.23,44.5187471 38.23,46.85 L38.23,55.5 C51.5545658,51.1906984 59.7590303,37.822819 57.568392,23.9911439 C55.3777538,10.1594687 43.4440628,-0.0189622903 29.44,1.01643954e-20 L29.44,1.01643954e-20 Z" fill="url(#linearGradient-1)"></path>
                <path d="M108.67,65.68 C97.49,65.68 92.3,63.48 87.81,61.19 L87.81,53.1 C93.18,55.92 101.45,57.94 109.1,57.94 C117.81,57.94 121.1,54.51 121.1,49.4 C121.1,44.29 117.93,41.57 106.93,38.93 C93.93,35.76 88.1,31.27 88.1,21.77 C88.1,12.77 94.96,6.11 108.43,6.11 C116.79,6.11 122.16,8.11 126.12,10.33 L126.12,18.25 C120.614809,15.2170183 114.403568,13.698715 108.12,13.85 C100.48,13.85 96,16.49 96,21.77 C96,26.52 99.7,28.9 109.9,31.45 C122.13,34.53 129,38.45 129,48.87 C129,58.91 123,65.68 108.67,65.68 Z" fill="#FFFFFF"></path>
                <path d="M135.68,42.71 C135.68,29.51 143.42,19.92 156.62,19.92 C169.82,19.92 177.39,29.51 177.39,42.71 C177.39,55.91 169.73,65.71 156.62,65.71 C143.51,65.71 135.68,55.91 135.68,42.71 Z M143.07,42.71 C143.07,51.07 147.21,58.64 156.62,58.64 C166.03,58.64 170,51.07 170,42.71 C170,34.35 166,27 156.63,27 C147.26,27 143.08,34.36 143.08,42.71 L143.07,42.71 Z" fill="#FFFFFF"></path>
                <path d="M185.31,20.8 L192.88,20.8 L192.88,47.38 C192.88,55.3 196.05,58.82 203.26,58.82 C210.26,58.82 215.14,54.16 215.14,45.27 L215.14,20.8 L222.71,20.8 L222.71,64.8 L215.14,64.8 L215.14,57.59 C212.392181,62.6829274 207.02567,65.8101745 201.24,65.69 C191.12,65.69 185.31,58.69 185.31,46.59 L185.31,20.8 Z" fill="#FFFFFF"></path>
                <path d="M234.15,20.8 L241.54,20.8 L241.54,28.54 C244.09,23.35 248.54,19.65 257.12,20.18 L257.12,27.57 C247.44,26.57 241.54,29.51 241.54,38.83 L241.54,64.83 L234.15,64.83 L234.15,20.8 Z" fill="#FFFFFF"></path>
                <path d="M293.82,63.66 C291.18,65.07 287.13,65.66 283.08,65.66 C267.42,65.66 260.08,56.16 260.08,42.66 C260.08,29.37 267.38,19.87 283.08,19.87 C286.687998,19.7579577 290.272558,20.487195 293.55,22 L293.55,29 C290.435531,27.5748003 287.033312,26.8902491 283.61,27 C272.17,27 267.51,34.22 267.51,42.75 C267.51,51.28 272.26,58.5 283.79,58.5 C287.191943,58.5898464 290.581472,58.0543009 293.79,56.92 L293.82,63.66 Z" fill="#FFFFFF"></path>
                <path d="M323.47,65.68 C307.01,65.68 299.8,56.18 299.8,42.68 C299.8,29.39 307.19,19.89 320.57,19.89 C334.12,19.89 339.57,29.31 339.57,42.68 L339.57,46.11 L307.46,46.11 C308.52,53.59 313.36,58.43 323.74,58.43 C328.304917,58.4258398 332.83366,57.6202787 337.12,56.05 L337.12,63.05 C333.51,65 328,65.68 323.47,65.68 Z M307.37,39.68 L331.92,39.68 C331.48,31.5 327.78,26.83 320.22,26.83 C312.21,26.79 308.16,32 307.37,39.63 L307.37,39.68 Z" fill="#FFFFFF"></path>
                <path d="M366,57.41 C367.600048,57.362259 369.191305,57.154558 370.75,56.79 L370.75,64.09 C369.09178,64.5639219 367.374588,64.7996149 365.65,64.79 C356.23,64.79 351.65,59.25 351.65,51.06 L351.65,27.84 L344.5,27.84 L344.5,20.84 L351.63,20.84 L351.63,11.48 L359,11.48 L359,20.8 L370.7,20.8 L370.7,27.8 L359,27.8 L359,50.9 C359,54.77 361.31,57.41 366,57.41 Z" fill="#FFFFFF"></path>
                <path d="M380.41,20.8 L387.8,20.8 L387.8,28.54 C390.35,23.35 394.8,19.65 403.38,20.18 L403.38,27.57 C393.7,26.57 387.8,29.51 387.8,38.83 L387.8,64.83 L380.41,64.83 L380.41,20.8 Z" fill="#FFFFFF"></path>
                <path d="M430,65.68 C413.54,65.68 406.33,56.18 406.33,42.68 C406.33,29.39 413.72,19.89 427.1,19.89 C440.65,19.89 446.1,29.31 446.1,42.68 L446.1,46.11 L414,46.11 C415.06,53.59 419.9,58.43 430.28,58.43 C434.844917,58.4258398 439.37366,57.6202787 443.66,56.05 L443.66,63.05 C440.07,65 434.53,65.68 430,65.68 Z M413.9,39.68 L438.45,39.68 C438.01,31.5 434.31,26.83 426.75,26.83 C418.78,26.79 414.73,32 413.94,39.63 L413.9,39.68 Z" fill="#FFFFFF"></path>
                <path d="M476.15,65.68 C459.69,65.68 452.48,56.18 452.48,42.68 C452.48,29.39 459.87,19.89 473.25,19.89 C486.8,19.89 492.25,29.31 492.25,42.68 L492.25,46.11 L460.13,46.11 C461.19,53.59 466.03,58.43 476.41,58.43 C480.974917,58.4258398 485.50366,57.6202787 489.79,56.05 L489.79,63.05 C486.18,65 480.64,65.68 476.15,65.68 Z M460.05,39.68 L484.6,39.68 C484.16,31.5 480.46,26.83 472.9,26.83 C464.89,26.79 460.84,32 460,39.63 L460.05,39.68 Z" fill="#FFFFFF"></path>
            </g>
        </g>
    </g>
</svg>