<?xml version="1.0" encoding="UTF-8"?>
<svg width="529px" height="128px" viewBox="0 0 529 128" version="1.1" xmlns="http://www.w3.org/2000/svg" xmlns:xlink="http://www.w3.org/1999/xlink">
    <!-- Generator: Sketch 46.2 (44496) - http://www.bohemiancoding.com/sketch -->
    <title>Statuspage-white</title>
    <desc>Created with Sketch.</desc>
    <defs>
        <linearGradient x1="50%" y1="-8.10423826%" x2="50%" y2="68.0985109%" id="linearGradient-1">
            <stop stop-color="#FFFFFF" stop-opacity="0.4" offset="0%"></stop>
            <stop stop-color="#FFFFFF" offset="100%"></stop>
        </linearGradient>
    </defs>
    <g id="Page-1" stroke="none" stroke-width="1" fill="none" fill-rule="evenodd">
        <g id="Statuspage-white" fill-rule="nonzero">
            <g transform="translate(0.000000, 31.160000)">
                <circle id="Oval" fill="url(#linearGradient-1)" cx="37.31" cy="42.2" r="17.46"></circle>
                <path d="M0.47,20 L9.89,31.14 C10.6071611,31.9507488 11.8391848,32.0438154 12.67,31.35 C27.87,17.71 46.74,17.71 61.93,31.35 C62.7608152,32.0438154 63.9928389,31.9507488 64.71,31.14 L74.15,20 C74.8332589,19.1909805 74.7674898,17.989599 74,17.26 C51.9,-2.1 22.71,-2.1 0.65,17.26 C-0.126551232,17.9813535 -0.205508315,19.1832557 0.47,20 Z" id="Shape" fill="#FFFFFF"></path>
                <path d="M116.38,59.57 C105.2,59.57 100.01,57.37 95.52,55.08 L95.52,47 C100.89,49.82 109.16,51.84 116.81,51.84 C125.52,51.84 128.81,48.41 128.81,43.3 C128.81,38.19 125.64,35.47 114.64,32.83 C101.64,29.66 95.81,25.17 95.81,15.67 C95.81,6.67 102.67,0.01 116.14,0.01 C124.5,0.01 129.87,2.01 133.83,4.23 L133.83,12.15 C128.324809,9.11701828 122.113568,7.59871499 115.83,7.75 C108.26,7.75 103.77,10.39 103.77,15.67 C103.77,20.42 107.47,22.8 117.67,25.35 C129.9,28.43 136.77,32.35 136.77,42.77 C136.71,52.8 130.72,59.57 116.38,59.57 Z" id="Shape" fill="#FFFFFF"></path>
                <path d="M163.46,51.3 C165.060048,51.252259 166.651305,51.044558 168.21,50.68 L168.21,58 C166.55178,58.4739219 164.834588,58.7096149 163.11,58.7 C153.69,58.7 149.11,53.16 149.11,44.97 L149.11,21.74 L142,21.74 L142,14.74 L149.13,14.74 L149.13,5.37 L156.52,5.37 L156.52,14.7 L168.22,14.7 L168.22,21.7 L156.52,21.7 L156.52,44.79 C156.51,48.66 158.8,51.3 163.46,51.3 Z" id="Shape" fill="#FFFFFF"></path>
                <path d="M206,50.77 C203.18,56.58 197.9,59.57 191.13,59.57 C179.43,59.57 173.53,49.63 173.53,36.69 C173.53,24.28 179.69,13.81 192.01,13.81 C198.43,13.81 203.36,16.71 206.01,22.43 L206.01,14.7 L213.58,14.7 L213.58,58.7 L206,58.7 L206,50.77 Z M193.15,52.53 C199.93,52.53 206,48.22 206,38.45 L206,34.93 C206,25.16 200.46,20.85 194,20.85 C185.46,20.85 181.06,26.48 181.06,36.69 C181.06,47.25 185.28,52.53 193.12,52.53 L193.15,52.53 Z" id="Shape" fill="#FFFFFF"></path>
                <path d="M242.4,51.3 C244.000048,51.252259 245.591305,51.044558 247.15,50.68 L247.15,58 C245.49178,58.4739219 243.774588,58.7096149 242.05,58.7 C232.63,58.7 228.05,53.16 228.05,44.97 L228.05,21.74 L220.92,21.74 L220.92,14.74 L228.05,14.74 L228.05,5.37 L235.44,5.37 L235.44,14.7 L247.14,14.7 L247.14,21.7 L235.44,21.7 L235.44,44.79 C235.44,48.66 237.73,51.3 242.4,51.3 Z" id="Shape" fill="#FFFFFF"></path>
                <path d="M255.95,14.7 L263.52,14.7 L263.52,41.27 C263.52,49.19 266.69,52.71 273.9,52.71 C280.9,52.71 285.78,48.05 285.78,39.16 L285.78,14.7 L293.35,14.7 L293.35,58.7 L285.78,58.7 L285.78,51.48 C283.032181,56.5729274 277.66567,59.7001745 271.88,59.58 C261.76,59.58 255.95,52.58 255.95,40.48 L255.95,14.7 Z" id="Shape" fill="#FFFFFF"></path>
                <path d="M318.6,59.57 C313.312229,59.6925719 308.069135,58.5761455 303.29,56.31 L303.29,48.31 C308.105906,50.9841335 313.493725,52.4622684 319,52.62 C324.81,52.62 327.8,50.24 327.8,46.81 C327.8,43.38 325.25,41.53 316.89,39.51 C307.12,37.13 302.99,33.35 302.99,26.13 C302.99,18.47 308.89,13.81 318.92,13.81 C323.798026,13.7594158 328.620109,14.8519191 333,17 L333,24.83 C327.72,22.19 323.41,20.83 318.75,20.83 C313.21,20.83 310.21,22.77 310.21,26.2 C310.21,29.28 312.32,31.2 320.42,33.2 C330.19,35.58 335.12,39.2 335.12,46.84 C335.15,54 330.4,59.57 318.6,59.57 Z" id="Shape" fill="#FFFFFF"></path>
                <path d="M351.43,51 L351.43,75.9 L343.86,75.9 L343.86,14.7 L351.43,14.7 L351.43,22.62 C354.25,16.81 359.53,13.82 366.3,13.82 C378,13.82 383.9,23.76 383.9,36.7 C383.9,49.11 377.74,59.58 365.42,59.58 C359,59.57 354.07,56.67 351.43,51 Z M364.28,20.91 C357.5,20.91 351.43,25.22 351.43,34.99 L351.43,38.51 C351.43,48.28 356.97,52.59 363.43,52.59 C371.97,52.59 376.37,46.96 376.37,36.75 C376.33,26.13 372.11,20.86 364.27,20.86 L364.28,20.91 Z" id="Shape" fill="#FFFFFF"></path>
                <path d="M422.53,50.77 C419.71,56.58 414.43,59.57 407.66,59.57 C395.96,59.57 390.06,49.63 390.06,36.69 C390.06,24.28 396.22,13.81 408.54,13.81 C414.96,13.81 419.89,16.71 422.54,22.43 L422.54,14.7 L430.11,14.7 L430.11,58.7 L422.54,58.7 L422.53,50.77 Z M409.68,52.53 C416.46,52.53 422.53,48.22 422.53,38.45 L422.53,34.93 C422.53,25.16 416.99,20.85 410.53,20.85 C401.99,20.85 397.59,26.48 397.59,36.69 C397.63,47.25 401.85,52.53 409.68,52.53 L409.68,52.53 Z" id="Shape" fill="#FFFFFF"></path>
                <path d="M471.19,50.77 C468.37,56.58 463.09,59.57 456.32,59.57 C444.7,59.57 438.9,49.63 438.9,36.69 C438.9,24.28 444.97,13.81 457.2,13.81 C463.62,13.81 468.55,16.71 471.2,22.43 L471.2,14.7 L478.59,14.7 L478.59,54.7 C478.59,67.64 472.52,76.35 456.77,76.35 C451.447897,76.5145461 446.139708,75.7184872 441.1,74 L441.1,66.61 C446.028795,68.3051058 451.198135,69.1964877 456.41,69.25 C467.41,69.25 471.19,63.35 471.19,55.17 L471.19,50.77 Z M458.34,52.53 C465.12,52.53 471.19,48.22 471.19,38.45 L471.19,34.93 C471.19,25.16 465.65,20.85 459.19,20.85 C450.65,20.85 446.25,26.48 446.25,36.69 C446.29,47.25 450.51,52.53 458.35,52.53 L458.34,52.53 Z" id="Shape" fill="#FFFFFF"></path>
                <path d="M511.06,59.57 C494.6,59.57 487.39,50.07 487.39,36.57 C487.39,23.28 494.78,13.78 508.16,13.78 C521.71,13.78 527.16,23.2 527.16,36.57 L527.16,40 L495,40 C496.06,47.48 500.9,52.32 511.28,52.32 C515.854781,52.3397566 520.397362,51.5544521 524.7,50 L524.7,57 C521.09,58.87 515.54,59.57 511.06,59.57 Z M494.96,33.57 L519.5,33.57 C519.06,25.39 515.36,20.72 507.8,20.72 C499.79,20.68 495.75,25.87 495,33.53 L494.96,33.57 Z" id="Shape" fill="#FFFFFF"></path>
            </g>
        </g>
    </g>
</svg>