<?xml version="1.0" encoding="UTF-8"?>
<svg width="311px" height="128px" viewBox="0 0 311 128" version="1.1" xmlns="http://www.w3.org/2000/svg" xmlns:xlink="http://www.w3.org/1999/xlink">
    <!-- Generator: Sketch 46.2 (44496) - http://www.bohemiancoding.com/sketch -->
    <title>Stride-white</title>
    <desc>Created with Sketch.</desc>
    <defs>
        <linearGradient x1="75.983502%" y1="30.7829042%" x2="3.18121594%" y2="70.6281501%" id="linearGradient-1">
            <stop stop-color="#FFFFFF" stop-opacity="0.4" offset="18%"></stop>
            <stop stop-color="#FFFFFF" offset="100%"></stop>
        </linearGradient>
    </defs>
    <g id="Page-1" stroke="none" stroke-width="1" fill="none" fill-rule="evenodd">
        <g id="Stride-white" fill-rule="nonzero">
            <g transform="translate(0.000000, 27.559999)" id="Shape">
                <path d="M113.2,63.27 C102.02,63.27 96.83,61.07 92.34,58.78 L92.34,50.68 C97.71,53.5 105.98,55.52 113.63,55.52 C122.34,55.52 125.63,52.09 125.63,46.98 C125.63,41.87 122.46,39.15 111.46,36.51 C98.46,33.34 92.63,28.85 92.63,19.35 C92.63,10.35 99.49,3.69 112.96,3.69 C121.32,3.69 126.69,5.69 130.65,7.91 L130.65,15.83 C125.144809,12.7970183 118.933568,11.278715 112.65,11.43 C105.08,11.43 100.59,14.07 100.59,19.35 C100.59,24.1 104.29,26.48 114.49,29.03 C126.72,32.11 133.59,36.03 133.59,46.45 C133.52,56.49 127.54,63.27 113.2,63.27 Z" fill="#FFFFFF"></path>
                <path d="M160.28,55 C161.880048,54.952259 163.471305,54.744558 165.03,54.38 L165.03,61.68 C163.37178,62.1539219 161.654588,62.3896149 159.93,62.38 C150.51,62.38 145.93,56.84 145.93,48.65 L145.93,25.43 L138.8,25.43 L138.8,18.43 L145.93,18.43 L145.93,9.06 L153.32,9.06 L153.32,18.39 L165,18.39 L165,25.39 L153.3,25.39 L153.3,48.49 C153.32,52.36 155.61,55 160.28,55 Z" fill="#FFFFFF"></path>
                <path d="M174.71,18.39 L182.1,18.39 L182.1,26.13 C184.65,20.94 189.1,17.24 197.68,17.77 L197.68,25.16 C188,24.16 182.1,27.1 182.1,36.42 L182.1,62.42 L174.71,62.42 L174.71,18.39 Z" fill="#FFFFFF"></path>
                <path d="M208.06,1.5 C209.489251,1.39772423 210.89249,1.92107516 211.905707,2.93429277 C212.918925,3.94751038 213.442276,5.35074862 213.34,6.78 C213.34,9.69606348 210.976063,12.06 208.06,12.06 C205.143937,12.06 202.78,9.69606348 202.78,6.78 C202.677724,5.35074862 203.201075,3.94751038 204.214293,2.93429277 C205.22751,1.92107516 206.630749,1.39772423 208.06,1.5 Z M204.19,18.4 L211.76,18.4 L211.76,62.4 L204.19,62.4 L204.19,18.4 Z" fill="#FFFFFF"></path>
                <path d="M253,54.47 C250.18,60.28 244.9,63.27 238.13,63.27 C226.43,63.27 220.53,53.33 220.53,40.39 C220.53,27.98 226.69,17.51 239.01,17.51 C245.43,17.51 250.36,20.41 253.01,26.13 L253.01,0 L260.58,0 L260.58,62.39 L253,62.39 L253,54.47 Z M240.15,56.23 C247,56.23 253,51.92 253,42.15 L253,38.63 C253,28.86 247.46,24.55 241,24.55 C232.46,24.55 228.06,30.18 228.06,40.39 C228.12,51 232.35,56.23 240.18,56.23 L240.15,56.23 Z" fill="#FFFFFF"></path>
                <path d="M293.06,63.27 C276.6,63.27 269.39,53.77 269.39,40.27 C269.39,26.98 276.78,17.48 290.16,17.48 C303.71,17.48 309.16,26.9 309.16,40.27 L309.16,43.7 L277,43.7 C278.06,51.18 282.9,56.02 293.28,56.02 C297.844917,56.0158398 302.37366,55.2102787 306.66,53.64 L306.66,60.64 C303.1,62.57 297.55,63.27 293.06,63.27 Z M276.96,37.27 L301.51,37.27 C301.07,29.09 297.37,24.42 289.81,24.42 C281.8,24.38 277.75,29.57 277,37.22 L276.96,37.27 Z" fill="#FFFFFF"></path>
                <path d="M19.16,7.39 L19.16,18.39 C19.16,33.65 11.53,39.53 1.81,40.45 C0.784197414,40.553084 0.00483350363,41.4190439 0.01,42.45 C0.01,46.55 0.01,56.24 0.01,60.45 C0.00916737825,61.0000535 0.234912988,61.5261694 0.634126832,61.9045712 C1.03334068,62.2829729 1.57077846,62.4802536 2.12,62.45 C26.46,61.21 41.12,43.45 41.12,21.4 L41.19,21.4 L41.19,7.4 L19.16,7.39 Z" fill="url(#linearGradient-1)"></path>
                <path d="M68,59.5 L42.23,7.39 L19.16,7.39 L46.38,60.75 C46.8911167,61.7549569 47.9225354,62.3884875 49.05,62.39 L66.23,62.39 C66.9185233,62.3827679 67.55491,62.0218658 67.9145354,61.4346808 C68.2741608,60.8474959 68.3064477,60.1166088 68,59.5 Z" fill="#FFFFFF"></path>
            </g>
        </g>
    </g>
</svg>