<?xml version="1.0" encoding="UTF-8"?>
<svg width="45px" height="45px" viewBox="0 0 45 45" version="1.1" xmlns="http://www.w3.org/2000/svg" xmlns:xlink="http://www.w3.org/1999/xlink">
    <!-- Generator: Sketch 47 (45396) - http://www.bohemiancoding.com/sketch -->
    <title>Confluence_logo</title>
    <desc>Created with Sketch.</desc>
    <defs>
        <linearGradient x1="99.140087%" y1="112.708084%" x2="33.8589812%" y2="37.7549606%" id="linearGradient-1">
            <stop stop-color="#0052CC" offset="18%"></stop>
            <stop stop-color="#2684FF" offset="100%"></stop>
        </linearGradient>
    </defs>
    <g id="iOS---server-v2" stroke="none" stroke-width="1" fill="none" fill-rule="evenodd">
        <g id="Confluence_logo" fill-rule="nonzero" fill="url(#linearGradient-1)">
            <g id="Group-6" transform="translate(2.000000, 1.000000)">
                <path d="M1.51314611,31.7655956 C1.08159036,32.4506675 0.596920065,33.2456094 0.185282276,33.8789777 C-0.183165503,34.4850681 0.0146320127,35.2667349 0.630116661,35.636898 L9.26123159,40.8072519 C9.56420147,40.9893414 9.92960371,41.0453574 10.2754008,40.9627237 C10.6211979,40.88009 10.918415,40.6657305 11.100323,40.3677718 C11.4455676,39.8054958 11.890402,39.0751834 12.3750723,38.2931673 C15.7943217,32.7996664 19.233489,33.4718124 25.4346131,36.3542846 L33.9926955,40.3160683 C34.3168204,40.4662441 34.6895976,40.4822799 35.0260675,40.360521 C35.3625375,40.2387621 35.6340311,39.989583 35.7786724,39.669774 L39.888411,30.6216548 C40.1787707,29.9754281 39.8833247,29.221923 39.224479,28.9283639 C37.4185842,28.1011073 33.8267125,26.453057 30.5933641,24.9342656 C18.9612769,19.4343017 9.07533065,19.7897635 1.51314611,31.7655956 Z" id="Shape"></path>
                <path d="M2.51314611,10.7655956 C2.08159036,11.4506675 1.59692006,12.2456094 1.18528228,12.8789777 C0.816834497,13.4850681 1.01463201,14.2667349 1.63011666,14.636898 L10.2612316,19.8072519 C10.5642015,19.9893414 10.9296037,20.0453574 11.2754008,19.9627237 C11.6211979,19.88009 11.918415,19.6657305 12.100323,19.3677718 C12.4455676,18.8054958 12.890402,18.0751834 13.3750723,17.2931673 C16.7943217,11.7996664 20.233489,12.4718124 26.4346131,15.3542846 L34.9926955,19.3160683 C35.3168204,19.4662441 35.6895976,19.4822799 36.0260675,19.360521 C36.3625375,19.2387621 36.6340311,18.989583 36.7786724,18.669774 L40.888411,9.62165481 C41.1787707,8.97542806 40.8833247,8.22192303 40.224479,7.92836392 C38.4185842,7.10110731 34.8267125,5.45305702 31.5933641,3.93426557 C19.9612769,-1.56569833 10.0753307,-1.21023651 2.51314611,10.7655956 Z" id="Shape" transform="translate(21.000000, 10.256410) scale(-1, -1) translate(-21.000000, -10.256410) "></path>
            </g>
        </g>
    </g>
</svg>