<?xml version="1.0" encoding="UTF-8"?>
<svg width="48px" height="48px" viewBox="0 0 48 48" version="1.1" xmlns="http://www.w3.org/2000/svg" xmlns:xlink="http://www.w3.org/1999/xlink">
    <!-- Generator: Sketch 47 (45396) - http://www.bohemiancoding.com/sketch -->
    <title>Default space avatar</title>
    <desc>Created with Sketch.</desc>
    <defs>
        <linearGradient x1="99.140087%" y1="112.745465%" x2="33.8589812%" y2="37.7675389%" id="linearGradient-1">
            <stop stop-color="#0052CC" offset="0%"></stop>
            <stop stop-color="#2684FF" offset="100%"></stop>
        </linearGradient>
        <linearGradient x1="15.2020332%" y1="7.21351524%" x2="61.141783%" y2="70.9663868%" id="linearGradient-2">
            <stop stop-color="#0052CC" offset="0%"></stop>
            <stop stop-color="#2684FF" offset="100%"></stop>
        </linearGradient>
    </defs>
    <g id="Blank-states" stroke="none" stroke-width="1" fill="none" fill-rule="evenodd">
        <g id="Default-space-avatar">
            <g id="Group-41-Copy-3">
                <g id="Group-38-Copy" fill="#FFFFFF">
                    <rect id="Rectangle-32-Copy-2" x="0" y="0" width="48" height="48"></rect>
                </g>
                <g id="Group-39" transform="translate(9.000000, 9.000000)">
                    <g id="icon/Confluence-Blue---580">
                        <g id="Confluence-icon-white" transform="translate(0.000000, 0.362069)">
                            <path d="M1.1320866,22.4072814 C0.822875429,22.9115335 0.475607504,23.4966562 0.180667622,23.9628515 C-0.08332647,24.4089686 0.0583961255,24.98432 0.499392978,25.2567813 L6.68361631,29.0624572 C6.90069526,29.1964854 7.16250721,29.2377164 7.410272,29.1768933 C7.65803679,29.1160702 7.87099385,28.9582894 8.00133158,28.7389747 C8.24870052,28.3251074 8.56742587,27.7875557 8.9146938,27.2119473 C11.3645977,23.1684166 13.8287728,23.6631545 18.2718994,25.7848188 L24.4037947,28.7009179 C24.6360313,28.8114559 24.9031274,28.8232592 25.1442093,28.7336377 C25.3852911,28.6440162 25.5798172,28.4606061 25.6834532,28.2252085 L28.6280949,21.5652756 C28.8361387,21.0896158 28.6244506,20.5349931 28.1523854,20.3189168 C26.8584556,19.7100086 24.2848673,18.4969495 21.9681621,17.3790322 C13.6337319,13.3355015 6.55041765,13.6018988 1.1320866,22.4072814 Z" id="Shape" fill="url(#linearGradient-1)" fill-rule="nonzero"></path>
                            <path d="M28.8611926,6.82303865 C29.1704037,6.31878659 29.5176717,5.73366392 29.8126116,5.26746862 C30.0766056,4.82135151 29.9348831,4.24600008 29.4938862,3.97353882 L23.3096629,0.167862926 C23.0896203,0.0212419075 22.8184856,-0.0271937958 22.5612879,0.0341726612 C22.3040903,0.0955391182 22.0840316,0.261171837 21.9538908,0.491345377 C21.7065219,0.905212631 21.3877965,1.44276435 21.0405286,2.01837283 C18.5906248,6.06190347 16.1264496,5.5671656 11.683323,3.44550129 L5.57045611,0.534159231 C5.33821951,0.423621231 5.0711234,0.411817948 4.83004153,0.501439463 C4.58895965,0.591060977 4.39443356,0.774471028 4.29079759,1.00986872 L1.34615586,7.66980153 C1.13811213,8.14546135 1.34980021,8.70008411 1.82186535,8.91616039 C3.11579516,9.52506853 5.68938348,10.7381277 8.00608868,11.856045 C16.3595473,15.8948186 23.4428615,15.6284212 28.8611926,6.82303865 Z" id="Shape" fill="url(#linearGradient-2)" fill-rule="nonzero"></path>
                        </g>
                    </g>
                </g>
            </g>
        </g>
    </g>
</svg>