<svg width="16" height="16" xmlns="http://www.w3.org/2000/svg" xmlns:xlink="http://www.w3.org/1999/xlink"><defs><path id="a" d="M0 16h16V0H0z"/></defs><g transform="matrix(1 0 0 -1 0 16)" fill="none" fill-rule="evenodd"><mask id="b" fill="#fff"><use xlink:href="#a"/></mask><g mask="url(#b)" fill-rule="nonzero"><path d="M16 8A8 8 0 1 0 0 8a8 8 0 0 0 16 0" fill="#FFCC4D"/><path d="M6.222 10.444C6.222 9.34 5.725 8 5.112 8 4.496 8 4 9.34 4 10.444c0 1.105.497 2.445 1.111 2.445s1.111-1.34 1.111-2.445M12 10.444C12 9.34 11.503 8 10.889 8s-1.111 1.34-1.111 2.444c0 1.105.497 2.445 1.11 2.445.615 0 1.112-1.34 1.112-2.445M8 6.222c-1.61 0-2.679.188-4 .445-.302.058-.889 0-.889-.89 0-1.777 2.042-4 4.889-4 2.846 0 4.889 2.223 4.889 4 0 .89-.587.948-.889.89-1.321-.257-2.39-.445-4-.445" fill="#664500"/><path d="M4 5.778s1.333-.445 4-.445 4 .445 4 .445S11.111 4 8 4C4.889 4 4 5.778 4 5.778" fill="#FFF"/></g></g></svg>