<svg width="16" height="16" xmlns="http://www.w3.org/2000/svg"><defs><path id="a" d="M0 15.833h15.833V0H0z"/></defs><g fill="none" fill-rule="evenodd"><g fill="#DE350B" fill-rule="nonzero"><path d="M5.988 11.914l1.995 3.324-.034.015C4.934 14.157.728 10.165.119 6.382A4.38 4.38 0 0 1 0 5.386 4.386 4.386 0 0 1 4.386 1c1.013 0 1.94.35 2.682.929L5.155 5.117a.666.666 0 0 0 .138.849L7.957 8.25l-1.953 2.953a.666.666 0 0 0-.016.71z"/><path d="M11.324 1a4.385 4.385 0 0 1 4.386 4.386c0 .343-.043.675-.119.996-.528 3.282-3.765 6.72-6.582 8.288L7.16 11.588l2.046-3.094a.666.666 0 0 0-.122-.874L6.4 5.32l1.797-2.994A4.357 4.357 0 0 1 11.324 1z"/></g></g></svg>