<svg width="16" height="16" xmlns="http://www.w3.org/2000/svg" xmlns:xlink="http://www.w3.org/1999/xlink"><defs><path id="a" d="M0 16h16V0H0z"/></defs><g transform="matrix(1 0 0 -1 0 16)" fill="none" fill-rule="evenodd"><mask id="b" fill="#fff"><use xlink:href="#a"/></mask><g mask="url(#b)" fill-rule="nonzero"><path d="M16 8A8 8 0 1 0 0 8a8 8 0 0 0 16 0" fill="#FFCC4D"/><path d="M10.438 3.165c-.005.02-.51 1.946-2.438 1.946-1.93 0-2.433-1.927-2.438-1.946a.22.22 0 0 1 .103-.242.227.227 0 0 1 .265.027c.004.003.45.383 2.07.383 1.595 0 2.052-.369 2.07-.383a.222.222 0 0 1 .368.215M11.458 9.049a1.762 1.762 0 0 1-.464.062c-1.042 0-1.801-.916-1.833-.954a.223.223 0 0 1-.008-.271.225.225 0 0 1 .26-.077c.003 0 .256.095.696.095.318 0 .653-.048.998-.142 1.04-.283 1.472-.808 1.482-.82a.222.222 0 0 1 .394.171c-.01.065-.257 1.59-1.525 1.936M4.99 9.106c-.142 0-.283-.018-.422-.052-1.275-.314-1.56-1.831-1.572-1.896a.222.222 0 0 1 .39-.181c.004.005.448.523 1.501.782.318.079.628.118.921.118.491 0 .77-.112.772-.113a.228.228 0 0 1 .092-.017.223.223 0 0 1 .136.4c-.164.194-.868.959-1.819.959" fill="#664500"/></g></g></svg>