<svg width="16" height="16" xmlns="http://www.w3.org/2000/svg" xmlns:xlink="http://www.w3.org/1999/xlink"><defs><path id="a" d="M0 15h15V0H0z"/></defs><g transform="matrix(1 0 0 -1 0 16)" fill="none" fill-rule="evenodd"><mask id="b" fill="#fff"><use xlink:href="#a"/></mask><g mask="url(#b)"><path d="M14.565 7.535c0 .21-.05.407-.133.585-.56 1.802-3.175 1.67-6.896 1.759-.622.014-.267.748-.048 2.361.142 1.05-.534 2.66-1.67 2.66-1.875 0-.072-1.479-1.73-5.134-.885-1.954-2.864-.86-2.864-2.821V2.478c0-.764.075-1.498 1.149-1.618C3.415.742 3.18 0 4.683 0H12.2a1.39 1.39 0 0 1 1.389 1.39c0 .317-.111.606-.291.84.425.238.716.687.716 1.208 0 .317-.11.605-.29.84.427.237.72.687.72 1.208 0 .379-.154.722-.401.974.315.254.521.64.521 1.075" fill="#FFDB5E" fill-rule="nonzero"/><path d="M9.591 6.146h3.585c.488 0 .945.261 1.195.68a.365.365 0 0 1-.628.372.662.662 0 0 0-.567-.323H9.505a.66.66 0 0 0 0 1.32h2.454a.365.365 0 0 1 0 .729H9.505a1.39 1.39 0 0 1-1.389-1.389c0-.427.198-.805.503-1.06a1.382 1.382 0 0 1-.416-.989c0-.428.199-.807.505-1.062a1.384 1.384 0 0 1 .174-2.117 1.375 1.375 0 0 1-.355-.918A1.39 1.39 0 0 1 9.916 0H12.2c.488 0 .945.26 1.195.68a.365.365 0 0 1-.627.373.665.665 0 0 0-.568-.323H9.916a.66.66 0 0 0 0 1.319h2.71c.488 0 .946.26 1.195.68a.364.364 0 1 1-.627.373.654.654 0 0 0-.568-.324H9.684a.66.66 0 0 0 0 1.32h3.372c.486 0 .944.26 1.194.68a.365.365 0 0 1-.627.372.655.655 0 0 0-.568-.323H9.591a.66.66 0 0 0 0 1.32" fill="#EE9547" fill-rule="nonzero"/></g></g></svg>