<svg width="16" height="16" xmlns="http://www.w3.org/2000/svg" xmlns:xlink="http://www.w3.org/1999/xlink"><defs><path id="a" d="M0 16h16V0H0z"/></defs><g transform="matrix(1 0 0 -1 0 16)" fill="none" fill-rule="evenodd"><mask id="b" fill="#fff"><use xlink:href="#a"/></mask><g mask="url(#b)" fill-rule="nonzero"><path d="M16 8A8 8 0 1 0 0 8a8 8 0 0 0 16 0" fill="#FFCC4D"/><path d="M6.222 8.667c0-.86-.497-1.556-1.11-1.556C4.496 7.111 4 7.807 4 8.667c0 .859.497 1.555 1.111 1.555s1.111-.696 1.111-1.555M12.648 8.09c-.027.06-.667 1.466-1.981 1.466-1.315 0-1.955-1.406-1.981-1.466a.222.222 0 0 1 .064-.262.224.224 0 0 1 .271-.007c.006.004.561.401 1.646.401 1.078 0 1.633-.391 1.645-.4a.221.221 0 0 1 .336.268M2.666 10.463a.444.444 0 0 0-.355.711c1.45 1.934 3.385 1.956 3.467 1.956a.445.445 0 0 0 .002-.89c-.07 0-1.587-.037-2.758-1.6a.444.444 0 0 0-.356-.177M12.89 9.518a.443.443 0 0 0-.357.178c-1.152 1.536-3.093 1.168-3.113 1.165a.444.444 0 1 0-.174.87c.102.022 2.514.477 3.998-1.501a.444.444 0 0 0-.355-.712M10.335 5.521a.228.228 0 0 1-.265-.026c-.004-.003-.45-.384-2.07-.384-1.618 0-2.064.38-2.065.38a.223.223 0 0 1-.373-.211c.005-.02.51-1.947 2.438-1.947 1.929 0 2.433 1.927 2.438 1.947a.22.22 0 0 1-.103.241" fill="#664500"/></g></g></svg>